<?xml version="1.0" standalone="no"?><!DOCTYPE svg PUBLIC "-//W3C//DTD SVG 1.1//EN" "http://www.w3.org/Graphics/SVG/1.1/DTD/svg11.dtd"><svg t="1773550139496" class="icon" viewBox="0 0 1024 1024" version="1.1" xmlns="http://www.w3.org/2000/svg" p-id="12284" xmlns:xlink="http://www.w3.org/1999/xlink" width="200" height="200"><path d="M292.48 178.24a114.304 114.304 0 1 0 0 228.608 114.304 114.304 0 0 0 0-228.608zM114.304 292.544a178.304 178.304 0 1 1 356.608 0 178.304 178.304 0 0 1-356.608 0z m617.28 324.736a114.304 114.304 0 1 0 0 228.48 114.304 114.304 0 0 0 0-228.48zM553.28 731.52a178.304 178.304 0 1 1 356.48 0 178.304 178.304 0 0 1-356.48 0zM68.416 484.8a32 32 0 0 1 31.168-1.408l142.208 71.04a32 32 0 1 1-28.608 57.28l-92.352-46.08a394.752 394.752 0 0 0 391.04 341.056 32 32 0 1 1 0 64A458.688 458.688 0 0 1 53.312 512a32 32 0 0 1 15.168-27.2zM480 85.248a32 32 0 0 1 32-32 458.688 458.688 0 0 1 458.688 458.688 32 32 0 0 1-46.336 28.608l-142.208-71.104a32 32 0 1 1 28.608-57.28l92.288 46.208A394.752 394.752 0 0 0 512 117.248a32 32 0 0 1-32-32z" p-id="12285" fill="#1296db"></path></svg>