<?xml version="1.0" standalone="no"?><!DOCTYPE svg PUBLIC "-//W3C//DTD SVG 1.1//EN" "http://www.w3.org/Graphics/SVG/1.1/DTD/svg11.dtd"><svg t="1773550080767" class="icon" viewBox="0 0 1024 1024" version="1.1" xmlns="http://www.w3.org/2000/svg" p-id="8067" xmlns:xlink="http://www.w3.org/1999/xlink" width="200" height="200"><path d="M694.242 1024.003 329.763 1024.003C147.915 1024.003 0 876.092 0 694.242L0 329.763C0 147.916 147.915 0 329.763 0l364.479 0c181.85 0 329.761 147.916 329.761 329.763l0 364.479C1024.003 876.092 876.092 1024.003 694.242 1024.003zM329.763 52.083c-153.105 0-277.681 124.575-277.681 277.683l0 364.476c0 153.1 124.575 277.691 277.681 277.691l364.479 0c153.1 0 277.681-124.58 277.681-277.691L971.923 329.763c0-153.105-124.58-277.681-277.681-277.681L329.763 52.082 329.763 52.083z" fill="#1296db" p-id="8068"></path><path d="M805.622 189.398l-68.635 0 0 50.703c0 19.265-19.37 34.96-43.26 34.96-23.84 0-43.255-15.695-43.255-34.96l0-50.703L383.771 189.398l0 50.703c0 19.265-19.415 34.96-43.255 34.96s-43.26-15.695-43.26-34.96l0-50.703-68.633 0c-46.288 0-83.983 30.478-83.983 67.907l0 547.797c0 37.385 37.695 67.86 83.983 67.86l576.999 0c46.335 0 83.98-30.475 83.98-67.91L889.602 257.306C889.602 219.876 851.907 189.398 805.622 189.398L805.622 189.398 805.622 189.398zM834.922 794.712c0 12.08-13.16 21.92-29.3 21.92L228.623 816.632c-16.193 0-29.302-9.84-29.302-21.92L199.321 381.591l635.602 0L834.923 794.712zM341.261 261.698c11.42 0 20.66-6.545 20.66-14.643l0-91.613c0-8.098-9.24-14.643-20.66-14.643-11.425 0-20.71 6.545-20.71 14.643l0 91.658C320.551 255.153 329.786 261.698 341.261 261.698L341.261 261.698zM692.982 261.698c11.425 0 20.71-6.545 20.71-14.643l0-91.613c0-8.098-9.285-14.643-20.71-14.643-11.42 0-20.66 6.545-20.66 14.643l0 91.658C672.322 255.153 681.562 261.698 692.982 261.698zM707.682 505.646 504.606 721.362c-10.825 11.48-28.355 11.48-39.185 0l-114.03-121.13c-10.825-11.485-10.825-30.11 0-41.64 10.83-11.49 28.36-11.49 39.19 0l94.405 100.26 183.466-194.893c10.825-11.485 28.355-11.485 39.18 0C718.457 475.489 718.457 494.116 707.682 505.646L707.682 505.646z" fill="#1296db" p-id="8069"></path></svg>