<svg t="1773391584570" class="icon" viewBox="0 0 1024 1024" version="1.1" xmlns="http://www.w3.org/2000/svg" p-id="7497" width="200" height="200"><path d="M136.533333 392.533333h750.933334v68.266667H136.533333z" fill="#1296db" p-id="7498"></path><path d="M170.666667 256.034133v614.331734C170.666667 889.224533 185.975467 904.533333 204.834133 904.533333h614.331734A34.184533 34.184533 0 0 0 853.333333 870.365867V256.034133A34.184533 34.184533 0 0 0 819.165867 221.866667H204.834133A34.184533 34.184533 0 0 0 170.666667 256.034133z m-68.266667 0A102.4512 102.4512 0 0 1 204.834133 153.6h614.331734A102.4512 102.4512 0 0 1 921.6 256.034133v614.331734A102.4512 102.4512 0 0 1 819.165867 972.8H204.834133A102.4512 102.4512 0 0 1 102.4 870.365867V256.034133z" fill="#1296db" p-id="7499"></path><path d="M341.333333 290.133333m0-34.133333l0-136.533333q0-34.133333 34.133334-34.133334l0 0q34.133333 0 34.133333 34.133334l0 136.533333q0 34.133333-34.133333 34.133333l0 0q-34.133333 0-34.133334-34.133333Z" fill="#1296db" p-id="7500"></path><path d="M614.4 290.133333m0-34.133333l0-136.533333q0-34.133333 34.133333-34.133334l0 0q34.133333 0 34.133334 34.133334l0 136.533333q0 34.133333-34.133334 34.133333l0 0q-34.133333 0-34.133333-34.133333Z" fill="#1296db" p-id="7501"></path></svg>
