<svg t="1773393730227" class="icon" viewBox="0 0 1024 1024" version="1.1" xmlns="http://www.w3.org/2000/svg" p-id="15117" width="200" height="200"><path d="M832 256a42.666667 42.666667 0 0 0 35.498667-18.986667l85.333333-128a42.624 42.624 0 0 0-39.338667-66.176c-2.346667 0.213333-236.245333 21.162667-401.493333 21.162667s-399.146667-20.949333-401.493333-21.162667a42.666667 42.666667 0 0 0-39.338667 66.133334l85.333333 128A42.666667 42.666667 0 0 0 192 256h42.666667v85.333333H170.666667a42.666667 42.666667 0 0 0 0 85.333334h64v277.333333H213.333333a42.666667 42.666667 0 0 0-42.666666 42.666667V938.666667a42.666667 42.666667 0 0 0 42.666666 42.666666h128a42.666667 42.666667 0 0 0 42.666667-42.666666v-192a42.666667 42.666667 0 0 0-42.666667-42.666667h-21.333333V426.666667h384v277.333333H682.666667a42.666667 42.666667 0 0 0-42.666667 42.666667V938.666667a42.666667 42.666667 0 0 0 42.666667 42.666666h128a42.666667 42.666667 0 0 0 42.666666-42.666666v-192a42.666667 42.666667 0 0 0-42.666666-42.666667h-21.333334V426.666667h64a42.666667 42.666667 0 0 0 0-85.333334h-64V256h42.666667z" p-id="15118"></path></svg>
