<svg t="1773391838746" class="icon" viewBox="0 0 1024 1024" version="1.1" xmlns="http://www.w3.org/2000/svg" p-id="9213" width="200" height="200"><path d="M512 597.994667c-149.205333 0-270.250667-121.045333-270.250667-270.250667S362.794667 57.493333 512 57.493333s270.250667 121.045333 270.250667 270.250667-121.045333 270.250667-270.250667 270.250667z m0-64c113.109333 0 206.250667-93.141333 206.250667-206.250667S625.109333 121.493333 512 121.493333s-206.250667 93.141333-206.250667 206.250667 93.141333 206.250667 206.250667 206.250667z" fill="#1296db" p-id="9214"></path><path d="M849.237333 966.4H174.762667C106.922667 966.4 51.413333 910.890667 51.413333 843.050667c0-118.613333 86.784-227.370667 219.904-277.077334 16.341333-6.058667 34.474667 2.218667 40.533334 18.56a32 32 0 0 1-18.56 40.533334c-110.805333 41.173333-183.466667 131.84-183.466667 217.92 0 45.696 37.242667 82.965333 82.965333 82.965333h674.453334c45.722667 0 82.965333-37.242667 82.965333-82.965333 0-86.08-72.661333-176.746667-183.466667-217.92a32 32 0 0 1-18.56-40.533334 32.085333 32.085333 0 0 1 40.533334-18.56C885.802667 615.68 972.586667 724.437333 972.586667 843.050667c0 67.84-55.509333 123.349333-123.349334 123.349333z" fill="#1296db" p-id="9215"></path></svg>
