<?xml version="1.0" standalone="no"?><!DOCTYPE svg PUBLIC "-//W3C//DTD SVG 1.1//EN" "http://www.w3.org/Graphics/SVG/1.1/DTD/svg11.dtd"><svg t="1773550099475" class="icon" viewBox="0 0 1024 1024" version="1.1" xmlns="http://www.w3.org/2000/svg" p-id="9286" xmlns:xlink="http://www.w3.org/1999/xlink" width="200" height="200"><path d="M381.189621 192.127745h256.510978c34.746507 0 63.361277-28.61477 63.361277-63.361278V63.361277c0-34.746507-28.61477-63.361277-63.361277-63.361277H381.189621C346.443114 0 317.828343 28.61477 317.828343 63.361277v65.40519c0 34.746507 28.61477 63.361277 63.361278 63.361278z m1.021956-126.722555h254.467066v63.361277H382.211577V65.40519z" fill="#1296db" p-id="9287"></path><path d="M959.616766 65.40519H792.015968c-17.373253 0-31.680639 14.307385-31.680639 31.680638 0 17.373253 14.307385 31.680639 31.680639 31.680639h164.53493v830.850299H66.427146V129.788423h157.381237c17.373253 0 31.680639-14.307385 31.680639-31.680639 0-17.373253-14.307385-31.680639-31.680639-31.680638H64.383234c-33.724551 0-61.317365 27.592814-61.317366 61.317365v834.938124c0 33.724551 27.592814 61.317365 61.317366 61.317365h894.211576c33.724551 0 61.317365-27.592814 61.317366-61.317365V127.744511c1.021956-34.746507-26.570858-62.339321-60.29541-62.339321z" fill="#1296db" p-id="9288"></path><path d="M461.924152 433.309381c-12.263473-12.263473-31.680639-12.263473-44.966068-1.021956L178.842315 660.183633c-12.263473 12.263473-13.285429 32.702595-1.021956 44.966068 12.263473 12.263473 32.702595 13.285429 44.966068 1.021956l215.632735-206.43513L592.734531 655.073852c12.263473 12.263473 30.658683 12.263473 43.944112 1.021956L839.025948 479.297405c13.285429-11.241517 14.307385-31.680639 3.065868-44.966068-11.241517-13.285429-31.680639-14.307385-44.966067-3.065868L617.261477 588.646707 461.924152 433.309381z" fill="#1296db" p-id="9289"></path></svg>